<svg aria-hidden="true" style="position: absolute; width: 0; height: 0; overflow: hidden;" version="1.1" xmlns="http://www.w3.org/2000/svg" xmlns:xlink="http://www.w3.org/1999/xlink">
<defs>
<symbol id="icon-burger" viewBox="0 0 32 32">
<path stroke-linejoin="miter" stroke-linecap="round" stroke-miterlimit="4" stroke-width="2.1818" d="M5.961 8.628h24.949"></path>
<path stroke-linejoin="miter" stroke-linecap="round" stroke-miterlimit="4" stroke-width="2.1818" d="M5.961 21.851h24.949"></path>
<path stroke-linejoin="miter" stroke-linecap="round" stroke-miterlimit="4" stroke-width="2.1818" d="M13.613 15.24h17.296"></path>
</symbol>
<symbol id="icon-close" viewBox="0 0 32 32">
<path stroke-linejoin="round" stroke-linecap="round" stroke-miterlimit="4" stroke-width="2.1818" d="M24 8l-16 16"></path>
<path stroke-linejoin="round" stroke-linecap="round" stroke-miterlimit="4" stroke-width="2.1818" d="M8 8l16 16"></path>
</symbol>
<symbol id="icon-facebook" viewBox="0 0 32 32">
<path d="M19.52 4.64c0.24 0 0.48 0 0.96 0v3.6c-0.24 0-0.72 0-1.2 0s-0.96 0-1.2 0.24c-0.24 0.24-0.24 0.48-0.24 1.040 0 0.48 0 0.8 0 1.28h2.64v3.040h-2.64v13.2h-4.080v-13.28h-2.16v-3.040h2.16v-1.040c0-1.76 0.24-3.040 0.72-3.6 0.72-1.040 2.16-1.52 4.32-1.52 0.24 0.080 0.48 0.080 0.72 0.080z"></path>
</symbol>
<symbol id="icon-instagram" viewBox="0 0 32 32">
<path d="M28.717 10.756c-0.016-1.074-0.215-2.14-0.596-3.145-0.667-1.716-2.024-3.073-3.743-3.737-0.994-0.373-2.044-0.573-3.108-0.596-1.368-0.061-1.801-0.078-5.273-0.078s-3.917 0-5.274 0.078c-1.062 0.023-2.112 0.223-3.106 0.596-1.719 0.664-3.078 2.021-3.743 3.737-0.374 0.992-0.576 2.041-0.596 3.101-0.061 1.367-0.080 1.8-0.080 5.265s0 3.909 0.080 5.265c0.021 1.062 0.222 2.109 0.596 3.104 0.667 1.714 2.024 3.071 3.744 3.735 0.989 0.386 2.040 0.605 3.106 0.639 1.369 0.061 1.803 0.080 5.274 0.080s3.916 0 5.274-0.080c1.062-0.021 2.113-0.221 3.108-0.595 1.719-0.666 3.076-2.022 3.743-3.737 0.374-0.994 0.574-2.041 0.596-3.104 0.061-1.365 0.080-1.798 0.080-5.265-0.003-3.466-0.003-3.906-0.082-5.264zM15.99 22.531c-3.631 0-6.572-2.936-6.572-6.561s2.941-6.561 6.572-6.561c3.628 0 6.572 2.936 6.572 6.561s-2.944 6.561-6.572 6.561zM22.823 10.696c-0.849 0-1.532-0.684-1.532-1.53s0.684-1.53 1.532-1.53c0.846 0 1.531 0.684 1.531 1.53s-0.685 1.53-1.531 1.53z"></path>
<path d="M15.992 19.976c2.211 0 4.004-1.793 4.004-4.004s-1.793-4.004-4.004-4.004c-2.211 0-4.004 1.793-4.004 4.004s1.793 4.004 4.004 4.004z"></path>
</symbol>
<symbol id="icon-logo" viewBox="0 0 32 32">
<path d="M13.992 11.937h-0.998v-1.012h0.998v1.012z"></path>
<path d="M12.994 11.937h-0.998v-1.012h0.998v1.012z"></path>
<path d="M8.004 11.937h-0.998v-1.012h0.998v1.012z"></path>
<path d="M7.006 11.937h-0.998v-1.012h0.998v1.012z"></path>
<path d="M6.008 11.937h-0.998v-1.012h0.998v1.012z"></path>
<path d="M25.969 10.925h-0.998v-1.012h0.998v1.012z"></path>
<path d="M24.971 10.925h-0.998v-1.012h0.998v1.012z"></path>
<path d="M17.984 10.925h-0.998v-1.012h0.998v1.012z"></path>
<path d="M16.986 10.925h-0.998v-1.012h0.998v1.012z"></path>
<path d="M14.991 10.925h-0.998v-1.012h0.998v1.012z"></path>
<path d="M13.992 10.925h-0.998v-1.012h0.998v1.012z"></path>
<path d="M7.006 10.925h-0.998v-1.012h0.998v1.012z"></path>
<path d="M6.008 10.925h-0.998v-1.012h0.998v1.012z"></path>
<path d="M25.969 9.913h-0.998v-1.012h0.998v1.012z"></path>
<path d="M16.986 9.913h-0.998v-1.012h0.998v1.012z"></path>
<path d="M14.991 9.913h-0.998v-1.012h0.998v1.012z"></path>
<path d="M6.008 9.913h-0.998v-1.012h0.998v1.012z"></path>
<path d="M30.959 8.901h-0.998v-1.012h0.998v1.012z"></path>
<path d="M1.018 8.901h-0.998v-1.012h0.998v1.012z"></path>
<path d="M30.959 7.889h-0.998v-1.012h0.998v1.012z"></path>
<path d="M29.961 7.889h-0.998v-1.012h0.998v1.012z"></path>
<path d="M20.979 7.889h-0.998v-1.012h0.998v1.012z"></path>
<path d="M19.981 7.889h-0.998v-1.012h0.998v1.012z"></path>
<path d="M18.982 7.889h-0.998v-1.012h0.998v1.012z"></path>
<path d="M12.994 7.889h-0.998v-1.012h0.998v1.012z"></path>
<path d="M11.996 7.889h-0.998v-1.012h0.998v1.012z"></path>
<path d="M10.998 7.889h-0.998v-1.012h0.998v1.012z"></path>
<path d="M2.016 7.889h-0.998v-1.012h0.998v1.012z"></path>
<path d="M1.018 7.889h-0.998v-1.012h0.998v1.012z"></path>
<path d="M30.959 6.877h-0.998v-1.012h0.998v1.012z"></path>
<path d="M29.961 6.877h-0.998v-1.012h0.998v1.012z"></path>
<path d="M28.963 6.877h-0.998v-1.012h0.998v1.012z"></path>
<path d="M21.977 6.877h-0.998v-1.012h0.998v1.012z"></path>
<path d="M20.979 6.877h-0.998v-1.012h0.998v1.012z"></path>
<path d="M19.981 6.877h-0.998v-1.012h0.998v1.012z"></path>
<path d="M16.986 6.877h-0.998v-1.012h0.998v1.012z"></path>
<path d="M14.991 6.877h-0.998v-1.012h0.998v1.012z"></path>
<path d="M11.996 6.877h-0.998v-1.012h0.998v1.012z"></path>
<path d="M10.998 6.877h-0.998v-1.012h0.998v1.012z"></path>
<path d="M10 6.877h-0.998v-1.012h0.998v1.012z"></path>
<path d="M3.014 6.877h-0.998v-1.012h0.998v1.012z"></path>
<path d="M2.016 6.877h-0.998v-1.012h0.998v1.012z"></path>
<path d="M1.018 6.877h-0.998v-1.012h0.998v1.012z"></path>
<path d="M29.961 5.866h-0.998v-1.012h0.998v1.012z"></path>
<path d="M28.963 5.866h-0.998v-1.012h0.998v1.012z"></path>
<path d="M27.965 5.866h-0.998v-1.012h0.998v1.012z"></path>
<path d="M22.975 5.866h-0.998v-1.012h0.998v1.012z"></path>
<path d="M21.977 5.866h-0.998v-1.012h0.998v1.012z"></path>
<path d="M20.979 5.866h-0.998v-1.012h0.998v1.012z"></path>
<path d="M17.984 5.866h-0.998v-1.012h0.998v1.012z"></path>
<path d="M16.986 5.866h-0.998v-1.012h0.998v1.012z"></path>
<path d="M14.991 5.866h-0.998v-1.012h0.998v1.012z"></path>
<path d="M13.992 5.866h-0.998v-1.012h0.998v1.012z"></path>
<path d="M10.998 5.866h-0.998v-1.012h0.998v1.012z"></path>
<path d="M10 5.866h-0.998v-1.012h0.998v1.012z"></path>
<path d="M9.002 5.866h-0.998v-1.012h0.998v1.012z"></path>
<path d="M4.012 5.866h-0.998v-1.012h0.998v1.012z"></path>
<path d="M3.014 5.866h-0.998v-1.012h0.998v1.012z"></path>
<path d="M2.016 5.866h-0.998v-1.012h0.998v1.012z"></path>
<path d="M28.963 4.854h-0.998v-1.012h0.998v1.012z"></path>
<path d="M27.965 4.854h-0.998v-1.012h0.998v1.012z"></path>
<path d="M26.967 4.854h-0.998v-1.012h0.998v1.012z"></path>
<path d="M18.982 4.854h-0.998v-1.012h0.998v1.012z"></path>
<path d="M17.984 4.854h-0.998v-1.012h0.998v1.012z"></path>
<path d="M16.986 4.854h-0.998v-1.012h0.998v1.012z"></path>
<path d="M14.991 4.854h-0.998v-1.012h0.998v1.012z"></path>
<path d="M13.992 4.854h-0.998v-1.012h0.998v1.012z"></path>
<path d="M12.994 4.854h-0.998v-1.012h0.998v1.012z"></path>
<path d="M5.010 4.854h-0.998v-1.012h0.998v1.012z"></path>
<path d="M4.012 4.854h-0.998v-1.012h0.998v1.012z"></path>
<path d="M3.014 4.854h-0.998v-1.012h0.998v1.012z"></path>
<path d="M31.957 3.842h-0.998v-1.012h0.998v1.012z"></path>
<path d="M27.965 3.842h-0.998v-1.012h0.998v1.012z"></path>
<path d="M26.967 3.842h-0.998v-1.012h0.998v1.012z"></path>
<path d="M25.969 3.842h-0.998v-1.012h0.998v1.012z"></path>
<path d="M18.982 3.842h-0.998v-1.012h0.998v1.012z"></path>
<path d="M17.984 3.842h-0.998v-1.012h0.998v1.012z"></path>
<path d="M13.992 3.842h-0.998v-1.012h0.998v1.012z"></path>
<path d="M12.994 3.842h-0.998v-1.012h0.998v1.012z"></path>
<path d="M6.008 3.842h-0.998v-1.012h0.998v1.012z"></path>
<path d="M5.010 3.842h-0.998v-1.012h0.998v1.012z"></path>
<path d="M4.012 3.842h-0.998v-1.012h0.998v1.012z"></path>
<path d="M31.957 2.83h-0.998v-1.012h0.998v1.012z"></path>
<path d="M30.959 2.83h-0.998v-1.012h0.998v1.012z"></path>
<path d="M26.967 2.83h-0.998v-1.012h0.998v1.012z"></path>
<path d="M25.969 2.83h-0.998v-1.012h0.998v1.012z"></path>
<path d="M24.971 2.83h-0.998v-1.012h0.998v1.012z"></path>
<path d="M18.982 2.83h-0.998v-1.012h0.998v1.012z"></path>
<path d="M12.994 2.83h-0.998v-1.012h0.998v1.012z"></path>
<path d="M7.006 2.83h-0.998v-1.012h0.998v1.012z"></path>
<path d="M6.008 2.83h-0.998v-1.012h0.998v1.012z"></path>
<path d="M5.010 2.83h-0.998v-1.012h0.998v1.012z"></path>
<path d="M1.018 2.83h-0.998v-1.012h0.998v1.012z"></path>
</symbol>
<symbol id="icon-logo-1" viewBox="0 0 35 32">
<path fill="#ecd979" style="fill: var(--color2, #ecd979)" d="M35.153 31.565h-1.097v-1.112h1.098v1.112zM34.055 31.565h-1.098v-1.112h1.098v1.112zM29.664 31.565h-1.098v-1.112h1.098v1.112zM28.566 31.565h-1.098v-1.112h1.098v1.112zM27.468 31.565h-1.098v-1.112h1.098v1.112zM20.88 31.565h-1.098v-1.112h1.098v1.112zM14.294 31.565h-1.098v-1.112h1.098v1.112zM7.707 31.565h-1.099v-1.112h1.098v1.112z"></path>
<path fill="#ecd979" style="fill: var(--color2, #ecd979)" d="M6.609 31.565h-1.098v-1.112h1.097v1.112zM5.511 31.565h-1.098v-1.112h1.098v1.112zM1.12 31.565h-1.098v-1.112h1.098v1.112zM35.153 30.452h-1.097v-1.113h1.098v1.113zM30.762 30.452h-1.098v-1.113h1.098v1.113zM29.664 30.452h-1.098v-1.113h1.098v1.113zM28.566 30.452h-1.098v-1.113h1.098v1.113zM20.88 30.452h-1.098v-1.113h1.098v1.113zM19.782 30.452h-1.098v-1.113h1.098v1.113zM15.392 30.452h-1.098v-1.113h1.098v1.113z"></path>
<path fill="#ecd979" style="fill: var(--color2, #ecd979)" d="M14.294 30.452h-1.098v-1.113h1.098v1.113zM6.609 30.452h-1.098v-1.113h1.097v1.113zM5.511 30.452h-1.098v-1.113h1.098v1.113zM4.413 30.452h-1.098v-1.113h1.098v1.113zM31.859 29.339h-1.098v-1.113h1.098v1.112zM30.762 29.339h-1.098v-1.113h1.098v1.112zM29.664 29.339h-1.098v-1.113h1.098v1.112zM20.88 29.339h-1.098v-1.113h1.098v1.112zM19.782 29.339h-1.098v-1.113h1.098v1.112zM18.685 29.339h-1.098v-1.113h1.098v1.112zM16.49 29.339h-1.098v-1.113h1.098v1.112zM15.392 29.339h-1.098v-1.113h1.098v1.112z"></path>
<path fill="#ecd979" style="fill: var(--color2, #ecd979)" d="M14.294 29.339h-1.098v-1.113h1.098v1.112zM5.511 29.339h-1.098v-1.113h1.098v1.112zM4.413 29.339h-1.098v-1.113h1.098v1.112zM3.315 29.339h-1.098v-1.113h1.098v1.112zM32.958 28.226h-1.098v-1.114h1.098v1.114zM31.859 28.226h-1.098v-1.114h1.098v1.114zM30.762 28.226h-1.098v-1.114h1.098v1.114zM25.272 28.226h-1.098v-1.114h1.098v1.114zM24.174 28.226h-1.098v-1.114h1.098v1.114zM23.077 28.226h-1.098v-1.114h1.098v1.114zM19.782 28.226h-1.098v-1.114h1.098v1.114zM18.685 28.226h-1.098v-1.114h1.098v1.114zM16.49 28.226h-1.098v-1.114h1.098v1.114zM15.392 28.226h-1.098v-1.114h1.098v1.114zM12.098 28.226h-1.098v-1.114h1.098v1.114zM11 28.226h-1.098v-1.114h1.098v1.114zM9.902 28.226h-1.098v-1.114h1.098v1.114zM4.413 28.226h-1.098v-1.114h1.098v1.114zM3.315 28.226h-1.098v-1.114h1.098v1.114z"></path>
<path fill="#ecd979" style="fill: var(--color2, #ecd979)" d="M2.218 28.226h-1.098v-1.114h1.098v1.114zM34.055 27.113h-1.098v-1.113h1.098v1.113z"></path>
<path fill="#ecd979" style="fill: var(--color2, #ecd979)" d="M32.958 27.113h-1.098v-1.113h1.098v1.113zM31.859 27.113h-1.098v-1.113h1.098v1.113zM24.174 27.113h-1.098v-1.113h1.098v1.113zM23.077 27.113h-1.098v-1.113h1.098v1.113zM21.978 27.113h-1.098v-1.113h1.098v1.113zM18.685 27.113h-1.098v-1.113h1.098v1.113zM16.49 27.113h-1.098v-1.113h1.098v1.113zM13.196 27.113h-1.098v-1.113h1.098v1.113zM12.098 27.113h-1.098v-1.113h1.098v1.113zM11 27.113h-1.098v-1.113h1.098v1.113zM3.315 27.113h-1.098v-1.113h1.098v1.113z"></path>
<path fill="#ecd979" style="fill: var(--color2, #ecd979)" d="M2.218 27.113h-1.098v-1.113h1.098v1.113z"></path>
<path fill="#ecd979" style="fill: var(--color2, #ecd979)" d="M1.12 27.113h-1.098v-1.113h1.098v1.113zM34.055 26h-1.098v-1.113h1.098v1.113z"></path>
<path fill="#ecd979" style="fill: var(--color2, #ecd979)" d="M32.958 26h-1.098v-1.113h1.098v1.113zM23.077 26h-1.098v-1.113h1.098v1.113zM21.978 26h-1.098v-1.113h1.098v1.113z"></path>
<path fill="#ecd979" style="fill: var(--color2, #ecd979)" d="M20.88 26h-1.098v-1.113h1.098v1.113zM14.294 26h-1.098v-1.113h1.098v1.113zM13.196 26h-1.098v-1.113h1.098v1.113zM12.098 26h-1.098v-1.113h1.098v1.113zM2.218 26h-1.098v-1.113h1.098v1.113z"></path>
<path fill="#ecd979" style="fill: var(--color2, #ecd979)" d="M1.12 26h-1.098v-1.113h1.098v1.113zM34.055 24.887h-1.098v-1.114h1.098v1.114zM28.566 24.887h-1.098v-1.114h1.098v1.114zM18.685 24.887h-1.098v-1.114h1.098v1.114zM16.49 24.887h-1.098v-1.114h1.098v1.114zM6.609 24.887h-1.098v-1.114h1.097v1.114zM1.12 24.887h-1.098v-1.114h1.098v1.114zM28.566 23.774h-1.098v-1.112h1.098v1.112zM27.468 23.774h-1.098v-1.112h1.098v1.112zM19.782 23.774h-1.098v-1.112h1.098v1.112zM18.685 23.774h-1.098v-1.112h1.098v1.112zM16.49 23.774h-1.098v-1.112h1.098v1.112zM15.392 23.774h-1.098v-1.112h1.098v1.112zM7.707 23.774h-1.099v-1.112h1.098v1.112z"></path>
<path fill="#ecd979" style="fill: var(--color2, #ecd979)" d="M6.609 23.774h-1.098v-1.112h1.097v1.112zM28.566 22.661h-1.098v-1.113h1.098v1.113zM27.468 22.661h-1.098v-1.113h1.098v1.113z"></path>
<path fill="#ecd979" style="fill: var(--color2, #ecd979)" d="M26.37 22.661h-1.098v-1.113h1.098v1.113zM20.88 22.661h-1.098v-1.113h1.098v1.113zM19.782 22.661h-1.098v-1.113h1.098v1.113zM15.392 22.661h-1.098v-1.113h1.098v1.113z"></path>
<path fill="#ecd979" style="fill: var(--color2, #ecd979)" d="M14.294 22.661h-1.098v-1.113h1.098v1.113zM8.805 22.661h-1.098v-1.113h1.098v1.113z"></path>
<path fill="#ecd979" style="fill: var(--color2, #ecd979)" d="M7.707 22.661h-1.099v-1.113h1.098v1.113z"></path>
<path fill="#ecd979" style="fill: var(--color2, #ecd979)" d="M6.609 22.661h-1.098v-1.113h1.097v1.113zM27.468 21.548h-1.098v-1.113h1.098v1.112z"></path>
<path fill="#ecd979" style="fill: var(--color2, #ecd979)" d="M26.37 21.548h-1.098v-1.113h1.098v1.112zM21.978 21.548h-1.098v-1.113h1.098v1.112z"></path>
<path fill="#ecd979" style="fill: var(--color2, #ecd979)" d="M20.88 21.548h-1.098v-1.113h1.098v1.112zM14.294 21.548h-1.098v-1.113h1.098v1.112zM13.196 21.548h-1.098v-1.113h1.098v1.112zM8.805 21.548h-1.098v-1.113h1.098v1.112z"></path>
<path fill="#ecd979" style="fill: var(--color2, #ecd979)" d="M7.707 21.548h-1.099v-1.113h1.098v1.112zM31.859 20.435h-1.098v-1.114h1.098v1.114zM30.762 20.435h-1.098v-1.114h1.098v1.114zM29.664 20.435h-1.098v-1.114h1.098v1.114zM26.37 20.435h-1.098v-1.114h1.098v1.114zM23.077 20.435h-1.098v-1.114h1.098v1.114zM21.978 20.435h-1.098v-1.114h1.098v1.114zM13.196 20.435h-1.098v-1.114h1.098v1.114zM12.098 20.435h-1.098v-1.114h1.098v1.114z"></path>
<path fill="#ecd979" style="fill: var(--color2, #ecd979)" d="M8.805 20.435h-1.098v-1.114h1.098v1.114zM5.511 20.435h-1.098v-1.114h1.098v1.114zM4.413 20.435h-1.098v-1.114h1.098v1.114zM3.315 20.435h-1.098v-1.114h1.098v1.114zM35.153 19.322h-1.097v-1.113h1.098v1.113zM30.762 19.322h-1.098v-1.113h1.098v1.113zM29.664 19.322h-1.098v-1.113h1.098v1.113zM28.566 19.322h-1.098v-1.113h1.098v1.113zM24.174 19.322h-1.098v-1.113h1.098v1.113zM23.077 19.322h-1.098v-1.113h1.098v1.113zM12.098 19.322h-1.098v-1.113h1.098v1.113zM11 19.322h-1.098v-1.113h1.098v1.113zM6.609 19.322h-1.098v-1.113h1.097v1.113zM5.511 19.322h-1.098v-1.113h1.098v1.113zM4.413 19.322h-1.098v-1.113h1.098v1.113zM35.153 18.208h-1.097v-1.112h1.098v1.112zM34.055 18.208h-1.098v-1.112h1.098v1.112zM29.664 18.208h-1.098v-1.112h1.098v1.112zM28.566 18.208h-1.098v-1.112h1.098v1.112zM27.468 18.208h-1.098v-1.112h1.098v1.112zM25.272 18.208h-1.098v-1.112h1.098v1.112zM24.174 18.208h-1.098v-1.112h1.098v1.112zM17.587 18.208h-1.098v-1.112h1.098v1.112zM11 18.208h-1.098v-1.112h1.098v1.112zM9.902 18.208h-1.098v-1.112h1.098v1.112zM7.707 18.208h-1.099v-1.112h1.098v1.112z"></path>
<path fill="#ecd979" style="fill: var(--color2, #ecd979)" d="M6.609 18.208h-1.098v-1.112h1.097v1.112zM5.511 18.208h-1.098v-1.112h1.098v1.112zM1.098 17.096h-1.098v-1.114h1.098v1.114zM2.218 17.096h-1.098v-1.114h1.098v1.114zM1.098 18.208h-1.098v-1.112h1.098v1.112zM1.098 15.982h-1.098v-1.113h1.098v1.113zM35.153 17.096h-1.097v-1.114h1.098v1.114zM34.055 17.096h-1.098v-1.114h1.098v1.114z"></path>
<path fill="#ecd979" style="fill: var(--color2, #ecd979)" d="M32.958 17.096h-1.098v-1.114h1.098v1.114zM18.685 17.096h-1.098v-1.114h1.098v1.114zM17.587 17.096h-1.098v-1.114h1.098v1.114zM16.49 17.096h-1.098v-1.114h1.098v1.114zM35.153 15.982h-1.097v-1.113h1.098v1.113zM34.055 15.982h-1.098v-1.113h1.098v1.113zM29.664 15.982h-1.098v-1.113h1.098v1.113zM28.566 15.982h-1.098v-1.113h1.098v1.113zM27.468 15.982h-1.098v-1.113h1.098v1.113zM25.272 15.982h-1.098v-1.113h1.098v1.113zM24.174 15.982h-1.098v-1.113h1.098v1.113zM17.587 15.982h-1.098v-1.113h1.098v1.113zM11 15.982h-1.098v-1.113h1.098v1.113zM9.902 15.982h-1.098v-1.113h1.098v1.113zM7.707 15.982h-1.099v-1.113h1.098v1.113z"></path>
<path fill="#ecd979" style="fill: var(--color2, #ecd979)" d="M6.609 15.982h-1.098v-1.113h1.097v1.113zM5.511 15.982h-1.098v-1.113h1.098v1.113zM35.153 14.87h-1.097v-1.113h1.098v1.112zM30.762 14.87h-1.098v-1.113h1.098v1.112zM29.664 14.87h-1.098v-1.113h1.098v1.112zM28.566 14.87h-1.098v-1.113h1.098v1.112zM24.174 14.87h-1.098v-1.113h1.098v1.112zM23.077 14.87h-1.098v-1.113h1.098v1.112zM12.098 14.87h-1.098v-1.113h1.098v1.112zM11 14.87h-1.098v-1.113h1.098v1.112zM6.609 14.87h-1.098v-1.113h1.097v1.112zM5.511 14.87h-1.098v-1.113h1.098v1.112zM4.413 14.87h-1.098v-1.113h1.098v1.112zM31.859 13.757h-1.098v-1.114h1.098v1.114z"></path>
<path fill="#ecd979" style="fill: var(--color2, #ecd979)" d="M30.762 13.757h-1.098v-1.114h1.098v1.114zM29.664 13.757h-1.098v-1.114h1.098v1.114zM26.37 13.757h-1.098v-1.114h1.098v1.114zM23.077 13.757h-1.098v-1.114h1.098v1.114zM21.978 13.757h-1.098v-1.114h1.098v1.114zM13.196 13.757h-1.098v-1.114h1.098v1.114zM12.098 13.757h-1.098v-1.114h1.098v1.114zM8.805 13.757h-1.098v-1.114h1.098v1.114zM5.511 13.757h-1.098v-1.114h1.098v1.114zM4.413 13.757h-1.098v-1.114h1.098v1.114zM3.315 13.757h-1.098v-1.114h1.098v1.114zM27.468 12.643h-1.098v-1.113h1.098v1.113z"></path>
<path fill="#ecd979" style="fill: var(--color2, #ecd979)" d="M26.37 12.643h-1.098v-1.113h1.098v1.113zM21.978 12.643h-1.098v-1.113h1.098v1.113z"></path>
<path fill="#ecd979" style="fill: var(--color2, #ecd979)" d="M20.88 12.643h-1.098v-1.113h1.098v1.113zM14.294 12.643h-1.098v-1.113h1.098v1.113zM13.196 12.643h-1.098v-1.113h1.098v1.113zM8.805 12.643h-1.098v-1.113h1.098v1.113z"></path>
<path fill="#ecd979" style="fill: var(--color2, #ecd979)" d="M7.707 12.643h-1.099v-1.113h1.098v1.113zM28.566 11.53h-1.098v-1.113h1.098v1.113zM27.468 11.53h-1.098v-1.113h1.098v1.113z"></path>
<path fill="#ecd979" style="fill: var(--color2, #ecd979)" d="M26.37 11.53h-1.098v-1.113h1.098v1.113zM20.88 11.53h-1.098v-1.113h1.098v1.113zM19.782 11.53h-1.098v-1.113h1.098v1.113zM15.392 11.53h-1.098v-1.113h1.098v1.113z"></path>
<path fill="#ecd979" style="fill: var(--color2, #ecd979)" d="M14.294 11.53h-1.098v-1.113h1.098v1.113zM8.805 11.53h-1.098v-1.113h1.098v1.113z"></path>
<path fill="#ecd979" style="fill: var(--color2, #ecd979)" d="M7.707 11.53h-1.099v-1.113h1.098v1.113z"></path>
<path fill="#ecd979" style="fill: var(--color2, #ecd979)" d="M6.609 11.53h-1.098v-1.113h1.097v1.113zM28.566 10.418h-1.098v-1.114h1.098v1.114zM27.468 10.418h-1.098v-1.114h1.098v1.114zM19.782 10.418h-1.098v-1.114h1.098v1.114zM18.685 10.418h-1.098v-1.114h1.098v1.114zM16.49 10.418h-1.098v-1.114h1.098v1.114zM15.392 10.418h-1.098v-1.114h1.098v1.114zM7.707 10.418h-1.099v-1.114h1.098v1.114z"></path>
<path fill="#ecd979" style="fill: var(--color2, #ecd979)" d="M6.609 10.418h-1.098v-1.114h1.097v1.114zM28.566 9.304h-1.098v-1.112h1.098v1.112zM18.685 9.304h-1.098v-1.112h1.098v1.112zM16.49 9.304h-1.098v-1.112h1.098v1.112zM6.609 9.304h-1.098v-1.112h1.097v1.112zM34.055 8.192h-1.098v-1.114h1.098v1.113zM1.12 8.192h-1.098v-1.114h1.098v1.113z"></path>
<path fill="#ecd979" style="fill: var(--color2, #ecd979)" d="M34.055 7.078h-1.098v-1.114h1.098v1.114z"></path>
<path fill="#ecd979" style="fill: var(--color2, #ecd979)" d="M32.958 7.078h-1.098v-1.114h1.098v1.114zM23.077 7.078h-1.098v-1.114h1.098v1.114zM21.978 7.078h-1.098v-1.114h1.098v1.114z"></path>
<path fill="#ecd979" style="fill: var(--color2, #ecd979)" d="M20.88 7.078h-1.098v-1.114h1.098v1.114zM14.294 7.078h-1.098v-1.114h1.098v1.114zM13.196 7.078h-1.098v-1.114h1.098v1.114zM12.098 7.078h-1.098v-1.114h1.098v1.114zM2.218 7.078h-1.098v-1.114h1.098v1.114z"></path>
<path fill="#ecd979" style="fill: var(--color2, #ecd979)" d="M1.12 7.078h-1.098v-1.114h1.098v1.114zM34.055 5.966h-1.098v-1.114h1.098v1.114z"></path>
<path fill="#ecd979" style="fill: var(--color2, #ecd979)" d="M32.958 5.966h-1.098v-1.114h1.098v1.114zM31.859 5.966h-1.098v-1.114h1.098v1.114zM24.174 5.966h-1.098v-1.114h1.098v1.114zM23.077 5.966h-1.098v-1.114h1.098v1.114zM21.978 5.966h-1.098v-1.114h1.098v1.114zM18.685 5.966h-1.098v-1.114h1.098v1.114zM16.49 5.966h-1.098v-1.114h1.098v1.114zM13.196 5.966h-1.098v-1.114h1.098v1.114zM12.098 5.966h-1.098v-1.114h1.098v1.114zM11 5.966h-1.098v-1.114h1.098v1.114zM3.315 5.966h-1.098v-1.114h1.098v1.114z"></path>
<path fill="#ecd979" style="fill: var(--color2, #ecd979)" d="M2.218 5.966h-1.098v-1.114h1.098v1.114z"></path>
<path fill="#ecd979" style="fill: var(--color2, #ecd979)" d="M1.12 5.966h-1.098v-1.114h1.098v1.114zM32.958 4.852h-1.098v-1.113h1.098v1.113zM31.859 4.852h-1.098v-1.113h1.098v1.113zM30.762 4.852h-1.098v-1.113h1.098v1.113zM25.272 4.852h-1.098v-1.113h1.098v1.113zM24.174 4.852h-1.098v-1.113h1.098v1.113zM23.077 4.852h-1.098v-1.113h1.098v1.113zM19.782 4.852h-1.098v-1.113h1.098v1.113zM18.685 4.852h-1.098v-1.113h1.098v1.113zM16.49 4.852h-1.098v-1.113h1.098v1.113zM15.392 4.852h-1.098v-1.113h1.098v1.113zM12.098 4.852h-1.098v-1.113h1.098v1.113zM11 4.852h-1.098v-1.113h1.098v1.113zM9.902 4.852h-1.098v-1.113h1.098v1.113zM4.413 4.852h-1.098v-1.113h1.098v1.113zM3.315 4.852h-1.098v-1.113h1.098v1.113z"></path>
<path fill="#ecd979" style="fill: var(--color2, #ecd979)" d="M2.218 4.852h-1.098v-1.113h1.098v1.113zM31.859 3.739h-1.098v-1.113h1.098v1.112zM30.762 3.739h-1.098v-1.113h1.098v1.112zM29.664 3.739h-1.098v-1.113h1.098v1.112zM20.88 3.739h-1.098v-1.113h1.098v1.112zM19.782 3.739h-1.098v-1.113h1.098v1.112zM18.685 3.739h-1.098v-1.113h1.098v1.112zM16.49 3.739h-1.098v-1.113h1.098v1.112zM15.392 3.739h-1.098v-1.113h1.098v1.112z"></path>
<path fill="#ecd979" style="fill: var(--color2, #ecd979)" d="M14.294 3.739h-1.098v-1.113h1.098v1.112zM5.511 3.739h-1.098v-1.113h1.098v1.112zM4.413 3.739h-1.098v-1.113h1.098v1.112zM3.315 3.739h-1.098v-1.113h1.098v1.112zM35.153 2.626h-1.097v-1.114h1.098v1.114zM30.762 2.626h-1.098v-1.114h1.098v1.114zM29.664 2.626h-1.098v-1.114h1.098v1.114zM28.566 2.626h-1.098v-1.114h1.098v1.114zM20.88 2.626h-1.098v-1.114h1.098v1.114zM19.782 2.626h-1.098v-1.114h1.098v1.114zM15.392 2.626h-1.098v-1.114h1.098v1.114z"></path>
<path fill="#ecd979" style="fill: var(--color2, #ecd979)" d="M14.294 2.626h-1.098v-1.114h1.098v1.114zM6.609 2.626h-1.098v-1.114h1.097v1.114zM5.511 2.626h-1.098v-1.114h1.098v1.114zM4.413 2.626h-1.098v-1.114h1.098v1.114zM35.153 1.513h-1.097v-1.113h1.098v1.113zM34.055 1.513h-1.098v-1.113h1.098v1.113zM29.664 1.513h-1.098v-1.113h1.098v1.113zM28.566 1.513h-1.098v-1.113h1.098v1.113zM27.468 1.513h-1.098v-1.113h1.098v1.113zM20.88 1.513h-1.098v-1.113h1.098v1.113z"></path>
<path fill="#ecd979" style="fill: var(--color2, #ecd979)" d="M14.294 1.513h-1.098v-1.113h1.098v1.113zM7.707 1.513h-1.099v-1.113h1.098v1.113z"></path>
<path fill="#ecd979" style="fill: var(--color2, #ecd979)" d="M6.609 1.513h-1.098v-1.113h1.097v1.113zM5.511 1.513h-1.098v-1.113h1.098v1.113zM1.12 1.513h-1.098v-1.113h1.098v1.113z"></path>
</symbol>
<symbol id="icon-youtube" viewBox="0 0 32 32">
<path d="M24.24 6c-1.36-0.080-4.16-0.16-8.4-0.16h-0.56c-4.080 0-6.8 0.080-8.16 0.24-1.84 0.16-3.12 0.64-3.84 1.28-0.64 0.56-1.12 1.6-1.28 2.96-0.080 0.88-0.16 2.72-0.16 5.52v0.4c0 2.64 0.080 4.48 0.24 5.36 0.24 1.28 0.64 2.24 1.44 2.8 0.8 0.64 2.16 1.040 4.080 1.2 1.36 0.080 4.16 0.16 8.4 0.16h0.56c4.080 0 6.8-0.080 8.16-0.24 1.84-0.16 3.12-0.64 3.84-1.28 0.64-0.56 1.12-1.6 1.28-2.96 0.080-0.88 0.16-2.72 0.16-5.52v-0.4c0-2.64-0.080-4.48-0.24-5.36-0.24-1.28-0.64-2.24-1.44-2.8-0.8-0.64-2.16-1.040-4.080-1.2zM21.12 15.84l-8.8 5.28v-10.56l8.8 5.28z"></path>
</symbol>
<symbol id="icon-arrow" viewBox="0 0 48 32">
<path fill="#ecd979" style="fill: var(--color1, #ecd979)" d="M41.648 18.935c-0.261-1.955-0.429-3.7-0.506-5.235-0.033-1.56 0.026-2.91 0.178-4.050l-37.94 21.905-1.795-3.109 37.94-21.905c-1.092-0.488-2.305-1.137-3.639-1.945-1.291-0.834-2.704-1.827-4.238-2.981l2.278-1.315c4.813 2.024 9.215 3.036 13.206 3.035l0.769 1.332c-2.025 3.406-3.35 7.724-3.975 12.954l-2.278 1.315z"></path>
</symbol>
</defs>
</svg>
