<svg aria-hidden="true" style="position: absolute; width: 0; height: 0; overflow: hidden;" version="1.1" xmlns="http://www.w3.org/2000/svg" xmlns:xlink="http://www.w3.org/1999/xlink">
<defs>
<symbol id="icon-cursor" viewBox="0 0 45 32">
<path fill="#ecd979" style="fill: var(--color1, #ecd979)" d="M39.199 18.762c-0.245-1.84-0.404-3.482-0.476-4.927-0.031-1.468 0.025-2.739 0.167-3.812l-35.708 20.616-1.689-2.926 35.708-20.616c-1.027-0.459-2.169-1.070-3.425-1.831-1.215-0.785-2.545-1.72-3.989-2.806l2.144-1.238c4.53 1.905 8.673 2.857 12.429 2.856l0.724 1.254c-1.906 3.206-3.153 7.27-3.741 12.192l-2.144 1.238z"></path>
</symbol>
<symbol id="icon-elements" viewBox="0 0 33 32">
<path d="M32.464 33.394h-1.494v-1.518h1.494v1.518z"></path>
<path d="M19.015 33.394h-1.494v-1.518h1.494v1.518z"></path>
<path d="M16.027 33.394h-1.494v-1.518h1.494v1.518z"></path>
<path d="M2.578 33.394h-1.494v-1.518h1.494v1.518z"></path>
<path d="M32.464 31.876h-1.494v-1.518h1.494v1.518z"></path>
<path d="M30.97 31.876h-1.494v-1.518h1.494v1.518z"></path>
<path d="M20.51 31.876h-1.494v-1.518h1.494v1.518z"></path>
<path d="M19.015 31.876h-1.494v-1.518h1.494v1.518z"></path>
<path d="M16.027 31.876h-1.494v-1.518h1.494v1.518z"></path>
<path d="M14.533 31.876h-1.494v-1.518h1.494v1.518z"></path>
<path d="M4.072 31.876h-1.494v-1.518h1.494v1.518z"></path>
<path d="M2.578 31.876h-1.494v-1.518h1.494v1.518z"></path>
<path d="M32.464 30.359h-1.494v-1.518h1.494v1.518z"></path>
<path d="M30.97 30.359h-1.494v-1.518h1.494v1.518z"></path>
<path d="M29.476 30.359h-1.494v-1.518h1.494v1.518z"></path>
<path d="M22.004 30.359h-1.494v-1.518h1.494v1.518z"></path>
<path d="M20.51 30.359h-1.494v-1.518h1.494v1.518z"></path>
<path d="M14.533 30.359h-1.494v-1.518h1.494v1.518z"></path>
<path d="M13.038 30.359h-1.494v-1.518h1.494v1.518z"></path>
<path d="M5.567 30.359h-1.494v-1.518h1.494v1.518z"></path>
<path d="M4.072 30.359h-1.494v-1.518h1.494v1.518z"></path>
<path d="M2.578 30.359h-1.494v-1.518h1.494v1.518z"></path>
<path d="M30.97 28.841h-1.494v-1.518h1.494v1.518z"></path>
<path d="M29.476 28.841h-1.494v-1.518h1.494v1.518z"></path>
<path d="M23.498 28.841h-1.494v-1.518h1.494v1.518z"></path>
<path d="M22.004 28.841h-1.494v-1.518h1.494v1.518z"></path>
<path d="M13.038 28.841h-1.494v-1.518h1.494v1.518z"></path>
<path d="M11.544 28.841h-1.494v-1.518h1.494v1.518z"></path>
<path d="M5.567 28.841h-1.494v-1.518h1.494v1.518z"></path>
<path d="M4.072 28.841h-1.494v-1.518h1.494v1.518z"></path>
<path d="M33.959 27.323h-1.494v-1.518h1.494v1.518z"></path>
<path d="M29.476 27.323h-1.494v-1.518h1.494v1.518z"></path>
<path d="M24.993 27.323h-1.494v-1.518h1.494v1.518z"></path>
<path d="M23.498 27.323h-1.494v-1.518h1.494v1.518z"></path>
<path d="M11.544 27.323h-1.494v-1.518h1.494v1.518z"></path>
<path d="M10.050 27.323h-1.494v-1.518h1.494v1.518z"></path>
<path d="M5.567 27.323h-1.494v-1.518h1.494v1.518z"></path>
<path d="M1.084 27.323h-1.494v-1.518h1.494v1.518z"></path>
<path d="M33.959 25.805h-1.494v-1.518h1.494v1.518z"></path>
<path d="M32.464 25.805h-1.494v-1.518h1.494v1.518z"></path>
<path d="M26.487 25.805h-1.494v-1.518h1.494v1.518z"></path>
<path d="M24.993 25.805h-1.494v-1.518h1.494v1.518z"></path>
<path d="M10.050 25.805h-1.494v-1.518h1.494v1.518z"></path>
<path d="M8.555 25.805h-1.494v-1.518h1.494v1.518z"></path>
<path d="M2.578 25.805h-1.494v-1.518h1.494v1.518z"></path>
<path d="M1.084 25.805h-1.494v-1.518h1.494v1.518z"></path>
<path d="M33.959 24.287h-1.494v-1.518h1.494v1.518z"></path>
<path d="M32.464 24.287h-1.494v-1.518h1.494v1.518z"></path>
<path d="M30.97 24.287h-1.494v-1.518h1.494v1.518z"></path>
<path d="M27.981 24.287h-1.494v-1.518h1.494v1.518z"></path>
<path d="M26.487 24.287h-1.494v-1.518h1.494v1.518z"></path>
<path d="M17.521 24.287h-1.494v-1.518h1.494v1.518z"></path>
<path d="M8.555 24.287h-1.494v-1.518h1.494v1.518z"></path>
<path d="M7.061 24.287h-1.494v-1.518h1.494v1.518z"></path>
<path d="M4.072 24.287h-1.494v-1.518h1.494v1.518z"></path>
<path d="M2.578 24.287h-1.494v-1.518h1.494v1.518z"></path>
<path d="M1.084 24.287h-1.494v-1.518h1.494v1.518z"></path>
<path d="M19.015 22.769h-1.494v-1.518h1.494v1.518z"></path>
<path d="M17.521 22.769h-1.494v-1.518h1.494v1.518z"></path>
<path d="M16.027 22.769h-1.494v-1.518h1.494v1.518z"></path>
<path d="M33.959 21.251h-1.494v-1.518h1.494v1.518z"></path>
<path d="M32.464 21.251h-1.494v-1.518h1.494v1.518z"></path>
<path d="M30.97 21.251h-1.494v-1.518h1.494v1.518z"></path>
<path d="M27.981 21.251h-1.494v-1.518h1.494v1.518z"></path>
<path d="M26.487 21.251h-1.494v-1.518h1.494v1.518z"></path>
<path d="M17.521 21.251h-1.494v-1.518h1.494v1.518z"></path>
<path d="M8.555 21.251h-1.494v-1.518h1.494v1.518z"></path>
<path d="M7.061 21.251h-1.494v-1.518h1.494v1.518z"></path>
<path d="M4.072 21.251h-1.494v-1.518h1.494v1.518z"></path>
<path d="M2.578 21.251h-1.494v-1.518h1.494v1.518z"></path>
<path d="M1.084 21.251h-1.494v-1.518h1.494v1.518z"></path>
<path d="M33.959 19.733h-1.494v-1.518h1.494v1.518z"></path>
<path d="M32.464 19.733h-1.494v-1.518h1.494v1.518z"></path>
<path d="M26.487 19.733h-1.494v-1.518h1.494v1.518z"></path>
<path d="M24.993 19.733h-1.494v-1.518h1.494v1.518z"></path>
<path d="M10.050 19.733h-1.494v-1.518h1.494v1.518z"></path>
<path d="M8.555 19.733h-1.494v-1.518h1.494v1.518z"></path>
<path d="M2.578 19.733h-1.494v-1.518h1.494v1.518z"></path>
<path d="M1.084 19.733h-1.494v-1.518h1.494v1.518z"></path>
<path d="M33.959 18.215h-1.494v-1.518h1.494v1.518z"></path>
<path d="M29.476 18.215h-1.494v-1.518h1.494v1.518z"></path>
<path d="M24.993 18.215h-1.494v-1.518h1.494v1.518z"></path>
<path d="M23.498 18.215h-1.494v-1.518h1.494v1.518z"></path>
<path d="M11.544 18.215h-1.494v-1.518h1.494v1.518z"></path>
<path d="M10.050 18.215h-1.494v-1.518h1.494v1.518z"></path>
<path d="M5.567 18.215h-1.494v-1.518h1.494v1.518z"></path>
<path d="M1.084 18.215h-1.494v-1.518h1.494v1.518z"></path>
<path d="M30.97 16.697h-1.494v-1.518h1.494v1.518z"></path>
<path d="M29.476 16.697h-1.494v-1.518h1.494v1.518z"></path>
<path d="M23.498 16.697h-1.494v-1.518h1.494v1.518z"></path>
<path d="M22.004 16.697h-1.494v-1.518h1.494v1.518z"></path>
<path d="M13.038 16.697h-1.494v-1.518h1.494v1.518z"></path>
<path d="M11.544 16.697h-1.494v-1.518h1.494v1.518z"></path>
<path d="M5.567 16.697h-1.494v-1.518h1.494v1.518z"></path>
<path d="M4.072 16.697h-1.494v-1.518h1.494v1.518z"></path>
<path d="M32.464 15.179h-1.494v-1.518h1.494v1.518z"></path>
<path d="M30.97 15.179h-1.494v-1.518h1.494v1.518z"></path>
<path d="M29.476 15.179h-1.494v-1.518h1.494v1.518z"></path>
<path d="M22.004 15.179h-1.494v-1.518h1.494v1.518z"></path>
<path d="M20.51 15.179h-1.494v-1.518h1.494v1.518z"></path>
<path d="M14.533 15.179h-1.494v-1.518h1.494v1.518z"></path>
<path d="M13.038 15.179h-1.494v-1.518h1.494v1.518z"></path>
<path d="M5.567 15.179h-1.494v-1.518h1.494v1.518z"></path>
<path d="M4.072 15.179h-1.494v-1.518h1.494v1.518z"></path>
<path d="M2.578 15.179h-1.494v-1.518h1.494v1.518z"></path>
<path d="M32.464 13.661h-1.494v-1.518h1.494v1.518z"></path>
<path d="M30.97 13.661h-1.494v-1.518h1.494v1.518z"></path>
<path d="M20.51 13.661h-1.494v-1.518h1.494v1.518z"></path>
<path d="M19.015 13.661h-1.494v-1.518h1.494v1.518z"></path>
<path d="M16.027 13.661h-1.494v-1.518h1.494v1.518z"></path>
<path d="M14.533 13.661h-1.494v-1.518h1.494v1.518z"></path>
<path d="M4.072 13.661h-1.494v-1.518h1.494v1.518z"></path>
<path d="M2.578 13.661h-1.494v-1.518h1.494v1.518z"></path>
<path d="M32.464 12.143h-1.494v-1.518h1.494v1.518z"></path>
<path d="M19.015 12.143h-1.494v-1.518h1.494v1.518z"></path>
<path d="M16.027 12.143h-1.494v-1.518h1.494v1.518z"></path>
<path d="M2.578 12.143h-1.494v-1.518h1.494v1.518z"></path>
<path d="M24.993 9.108h-1.494v-1.518h1.494v1.518z"></path>
<path d="M23.498 9.108h-1.494v-1.518h1.494v1.518z"></path>
<path d="M22.004 9.108h-1.494v-1.518h1.494v1.518z"></path>
<path d="M13.038 9.108h-1.494v-1.518h1.494v1.518z"></path>
<path d="M11.544 9.108h-1.494v-1.518h1.494v1.518z"></path>
<path d="M10.050 9.108h-1.494v-1.518h1.494v1.518z"></path>
<path d="M26.487 7.59h-1.494v-1.518h1.494v1.518z"></path>
<path d="M24.993 7.59h-1.494v-1.518h1.494v1.518z"></path>
<path d="M23.498 7.59h-1.494v-1.518h1.494v1.518z"></path>
<path d="M19.015 7.59h-1.494v-1.518h1.494v1.518z"></path>
<path d="M16.027 7.59h-1.494v-1.518h1.494v1.518z"></path>
<path d="M11.544 7.59h-1.494v-1.518h1.494v1.518z"></path>
<path d="M10.050 7.59h-1.494v-1.518h1.494v1.518z"></path>
<path d="M8.555 7.59h-1.494v-1.518h1.494v1.518z"></path>
<path d="M27.981 6.072h-1.494v-1.518h1.494v1.518z"></path>
<path d="M26.487 6.072h-1.494v-1.518h1.494v1.518z"></path>
<path d="M24.993 6.072h-1.494v-1.518h1.494v1.518z"></path>
<path d="M20.51 6.072h-1.494v-1.518h1.494v1.518z"></path>
<path d="M19.015 6.072h-1.494v-1.518h1.494v1.518z"></path>
<path d="M16.027 6.072h-1.494v-1.518h1.494v1.518z"></path>
<path d="M14.533 6.072h-1.494v-1.518h1.494v1.518z"></path>
<path d="M10.050 6.072h-1.494v-1.518h1.494v1.518z"></path>
<path d="M8.555 6.072h-1.494v-1.518h1.494v1.518z"></path>
<path d="M7.061 6.072h-1.494v-1.518h1.494v1.518z"></path>
<path d="M33.959 4.554h-1.494v-1.518h1.494v1.518z"></path>
<path d="M22.004 4.554h-1.494v-1.518h1.494v1.518z"></path>
<path d="M20.51 4.554h-1.494v-1.518h1.494v1.518z"></path>
<path d="M19.015 4.554h-1.494v-1.518h1.494v1.518z"></path>
<path d="M16.027 4.554h-1.494v-1.518h1.494v1.518z"></path>
<path d="M14.533 4.554h-1.494v-1.518h1.494v1.518z"></path>
<path d="M13.038 4.554h-1.494v-1.518h1.494v1.518z"></path>
<path d="M1.084 4.554h-1.494v-1.518h1.494v1.518z"></path>
<path d="M33.959 3.036h-1.494v-1.518h1.494v1.518z"></path>
<path d="M32.464 3.036h-1.494v-1.518h1.494v1.518z"></path>
<path d="M22.004 3.036h-1.494v-1.518h1.494v1.518z"></path>
<path d="M20.51 3.036h-1.494v-1.518h1.494v1.518z"></path>
<path d="M14.533 3.036h-1.494v-1.518h1.494v1.518z"></path>
<path d="M13.038 3.036h-1.494v-1.518h1.494v1.518z"></path>
<path d="M2.578 3.036h-1.494v-1.518h1.494v1.518z"></path>
<path d="M1.084 3.036h-1.494v-1.518h1.494v1.518z"></path>
<path d="M33.959 1.518h-1.494v-1.518h1.494v1.518z"></path>
<path d="M32.464 1.518h-1.494v-1.518h1.494v1.518z"></path>
<path d="M30.97 1.518h-1.494v-1.518h1.494v1.518z"></path>
<path d="M22.004 1.518h-1.494v-1.518h1.494v1.518z"></path>
<path d="M13.038 1.518h-1.494v-1.518h1.494v1.518z"></path>
<path d="M4.072 1.518h-1.494v-1.518h1.494v1.518z"></path>
<path d="M2.578 1.518h-1.494v-1.518h1.494v1.518z"></path>
<path d="M1.084 1.518h-1.494v-1.518h1.494v1.518z"></path>
</symbol>
<symbol id="icon-star" viewBox="0 0 32 32">
<path fill="#ecd979" style="fill: var(--color1, #ecd979)" d="M15.434 0.333c0.251-0.437 0.881-0.437 1.133 0l1.84 3.203c0.19 0.33 0.621 0.429 0.935 0.214l3.081-2.107c0.418-0.286 0.987-0.008 1.020 0.496l0.239 3.642c0.025 0.383 0.374 0.662 0.754 0.602l3.69-0.584c0.504-0.080 0.9 0.423 0.706 0.894l-1.386 3.36c-0.148 0.359 0.048 0.767 0.421 0.876l3.555 1.036c0.493 0.144 0.635 0.773 0.252 1.115l-2.731 2.433c-0.291 0.26-0.291 0.715 0 0.975l2.731 2.433c0.383 0.341 0.241 0.971-0.252 1.115l-3.555 1.036c-0.373 0.109-0.569 0.517-0.421 0.876l1.386 3.36c0.194 0.471-0.202 0.974-0.706 0.894l-3.69-0.584c-0.38-0.060-0.729 0.219-0.754 0.602l-0.239 3.642c-0.033 0.505-0.603 0.782-1.020 0.496l-3.081-2.107c-0.314-0.215-0.745-0.116-0.935 0.214l-1.84 3.203c-0.251 0.437-0.881 0.437-1.133 0l-1.84-3.203c-0.19-0.33-0.621-0.429-0.935-0.214l-3.081 2.107c-0.418 0.286-0.987 0.009-1.020-0.496l-0.239-3.642c-0.025-0.383-0.374-0.662-0.754-0.602l-3.69 0.584c-0.504 0.080-0.9-0.423-0.706-0.894l1.386-3.36c0.148-0.359-0.048-0.767-0.421-0.876l-3.555-1.036c-0.493-0.144-0.635-0.773-0.252-1.115l2.731-2.433c0.291-0.26 0.291-0.715 0-0.975l-2.731-2.433c-0.383-0.341-0.241-0.971 0.252-1.115l3.555-1.036c0.373-0.109 0.569-0.517 0.421-0.876l-1.386-3.36c-0.194-0.471 0.202-0.974 0.706-0.894l3.69 0.584c0.38 0.060 0.729-0.219 0.754-0.602l0.239-3.642c0.033-0.505 0.603-0.782 1.020-0.496l3.081 2.107c0.314 0.215 0.745 0.116 0.935-0.214l1.84-3.203z"></path>
</symbol>
<symbol id="icon-tablet-close-btn" viewBox="0 0 32 32">
<path stroke-linejoin="round" stroke-linecap="round" stroke-miterlimit="4" stroke-width="2.1818" d="M24 8l-16 16"></path>
<path stroke-linejoin="round" stroke-linecap="round" stroke-miterlimit="4" stroke-width="2.1818" d="M8 8l16 16"></path>
</symbol>
</defs>
</svg>
